<?xml version="1.0" standalone="no"?>
<!DOCTYPE svg PUBLIC "-//W3C//DTD SVG 20010904//EN"
 "http://www.w3.org/TR/2001/REC-SVG-20010904/DTD/svg10.dtd">
<svg version="1.0" xmlns="http://www.w3.org/2000/svg"
 width="225.000000pt" height="225.000000pt" viewBox="0 0 225.000000 225.000000"
 preserveAspectRatio="xMidYMid meet">

<g transform="translate(0.000000,225.000000) scale(0.100000,-0.100000)"
fill="#000000" stroke="none">
<path d="M0 1412 c0 -826 0 -839 20 -857 25 -23 25 -41 0 -57 -19 -12 -20 -24
-20 -255 l0 -243 1125 0 1125 0 0 1125 0 1125 -1125 0 -1125 0 0 -838z m880
382 c36 -9 88 -18 115 -21 57 -5 75 -22 75 -69 0 -18 5 -45 10 -60 13 -33 1
-50 -52 -71 -21 -8 -43 -24 -49 -34 -13 -25 -47 -24 -68 2 -25 31 -186 43
-242 17 -22 -9 -39 -24 -39 -33 0 -11 -11 -15 -40 -15 -22 0 -40 5 -40 10 0 6
18 30 40 54 39 43 40 45 38 110 -1 36 2 70 7 75 15 14 126 50 155 50 14 0 54
-7 90 -15z m-442 -330 c21 -14 52 -63 52 -81 0 -5 -13 -17 -30 -26 -17 -10
-30 -27 -30 -37 0 -17 4 -18 25 -10 14 5 25 6 25 2 1 -4 7 4 15 18 l13 25 12
-30 c6 -16 27 -48 46 -71 24 -30 34 -52 34 -76 l-1 -33 -28 33 c-28 32 -29 33
-36 13 -10 -33 -50 -27 -78 12 -38 52 -68 125 -73 181 -2 28 -1 44 3 35 7 -12
12 -13 31 -3 21 11 22 13 7 28 -9 9 -21 14 -26 11 -10 -7 -12 8 -2 18 9 10 16
9 41 -9z m450 -70 c-24 -50 -62 -69 -138 -69 -78 0 -96 11 -106 62 l-6 32 33
-10 c101 -32 117 -32 165 -4 25 15 48 34 52 43 6 14 7 13 10 -5 2 -12 -3 -35
-10 -49z m82 38 c0 -17 -47 -49 -57 -39 -2 3 2 16 8 31 14 30 49 36 49 8z
m-374 0 c6 -4 23 -32 37 -62 19 -40 23 -56 14 -62 -22 -14 -34 -9 -66 27 -33
38 -39 67 -18 90 14 16 18 17 33 7z m599 -52 c7 0 12 -8 11 -17 -3 -20 -43
-28 -83 -18 -20 5 -22 8 -11 19 18 17 40 25 56 20 8 -2 20 -4 27 -4z m-245
-84 c0 -2 -7 -7 -16 -10 -8 -3 -12 -2 -9 4 6 10 25 14 25 6z m17 -88 c7 -18
19 -62 28 -97 9 -36 22 -83 29 -105 7 -23 19 -60 25 -83 l12 -43 77 -1 c97 -1
126 -9 130 -35 5 -37 -22 -48 -91 -38 -34 5 -86 8 -115 6 l-52 -4 20 -32 c18
-30 27 -59 29 -93 1 -8 16 -13 39 -13 44 0 126 -26 190 -61 35 -19 45 -21 52
-10 6 11 9 10 11 -3 3 -11 25 -25 58 -36 29 -11 60 -27 67 -37 21 -27 13 -76
-13 -88 -13 -5 -23 -17 -23 -26 0 -9 -7 -22 -15 -29 -8 -7 -15 -24 -15 -37 0
-32 -29 -81 -52 -89 -10 -3 -18 -10 -18 -15 0 -5 -42 -9 -92 -9 -51 0 -123 -6
-160 -13 -77 -16 -86 -8 -40 35 38 36 84 57 150 69 101 18 134 59 65 78 -21 6
-79 14 -128 17 -77 6 -92 4 -104 -10 -20 -24 -30 -19 -25 12 8 40 31 71 60 78
26 7 149 0 233 -12 39 -6 43 -5 39 12 -2 11 -18 24 -38 31 -19 7 -30 12 -25
13 6 0 -15 10 -45 21 -60 23 -307 44 -325 28 -5 -5 -17 -9 -27 -9 -27 0 -22
-20 13 -56 45 -47 24 -87 -26 -50 -16 12 -21 11 -34 -6 -9 -11 -29 -21 -44
-22 -21 -3 -32 4 -49 28 -12 17 -28 37 -34 43 -7 7 -22 38 -33 68 -18 48 -20
75 -19 203 2 81 -1 163 -6 182 l-9 35 54 -52 c30 -29 75 -68 102 -88 50 -38
62 -54 25 -33 -13 7 -26 11 -30 10 -5 -1 -8 3 -8 9 0 6 -7 9 -14 6 -9 -4 -13
-1 -11 6 2 7 -16 27 -41 45 l-45 34 17 -34 c19 -39 73 -108 125 -160 20 -21
42 -52 49 -69 12 -27 16 -30 49 -25 20 3 57 8 82 11 l46 6 -14 57 c-7 31 -16
77 -19 102 -3 25 -23 116 -45 203 -43 173 -45 193 -26 200 21 9 23 8 34 -25z
m-701 -405 c-71 -93 -120 -168 -133 -203 -6 -19 -12 -27 -13 -17 0 32 75 157
142 232 44 50 46 43 4 -12z m1018 -89 c3 -8 2 -12 -4 -9 -6 3 -10 10 -10 16 0
14 7 11 14 -7z m-677 -96 c-2 -13 -4 -5 -4 17 -1 22 1 32 4 23 2 -10 2 -28 0
-40z m400 -300 c-3 -7 -5 -2 -5 12 0 14 2 19 5 13 2 -7 2 -19 0 -25z m-520 16
c-3 -3 3 -27 14 -52 23 -54 23 -130 0 -150 -9 -8 -10 -10 -3 -7 19 10 0 -26
-24 -46 -11 -8 -15 -9 -10 -2 4 7 1 23 -5 35 -25 47 -3 228 28 228 3 0 4 -3 0
-6z m509 -152 c-18 -16 -18 -16 -6 6 6 13 14 21 18 18 3 -4 -2 -14 -12 -24z
m324 -50 c0 -15 -2 -15 -10 -2 -13 20 -13 33 0 25 6 -3 10 -14 10 -23z m-1273
-94 c-3 -8 -6 -5 -6 6 -1 11 2 17 5 13 3 -3 4 -12 1 -19z"/>
</g>
</svg>
